<svg aria-hidden="true" style="position: absolute; width: 0; height: 0; overflow: hidden;" version="1.1" xmlns="http://www.w3.org/2000/svg" xmlns:xlink="http://www.w3.org/1999/xlink">
<defs>
<symbol id="icon-star" viewBox="0 0 32 32">
<path d="M15.288 1.231l6.047 7.752 9.241 3.356-5.504 8.147-0.336 9.826-9.449-2.717-9.449 2.717-0.336-9.826-5.504-8.147 9.241-3.356 6.047-7.752z"></path>
</symbol>
<symbol id="icon-star-disabled" viewBox="0 0 32 32">
<path stroke-linejoin="miter" stroke-linecap="butt" stroke-miterlimit="4" stroke-width="2.4615" d="M20.365 9.74l0.219 0.279 8.089 2.938-4.817 7.132-0.012 0.353-0.284 8.248-8.272-2.377-0.339 0.098-7.935 2.279-0.279-8.248-0.012-0.353-0.2-0.293-4.62-6.841 8.091-2.935 0.216-0.279 5.077-6.51 5.077 6.51z"></path>
</symbol>
<symbol id="icon-plus" viewBox="0 0 32 32">
<path d="M10.806 29.917v-29.917h8.326v29.917h-8.326zM0 19.132v-8.326h29.917v8.326h-29.917z"></path>
</symbol>
<symbol id="icon-time" viewBox="0 0 32 32">
<path d="M16 17.6h8v8h-8v-8zM27.2 3.2h-1.6v-3.2h-3.2v3.2h-12.8v-3.2h-3.2v3.2h-1.6c-1.76 0-3.2 1.44-3.2 3.2v22.4c0 1.76 1.44 3.2 3.2 3.2h22.4c1.76 0 3.2-1.44 3.2-3.2v-22.4c0-1.76-1.44-3.2-3.2-3.2zM27.2 6.4v3.2h-22.4v-3.2h22.4zM4.8 28.8v-16h22.4v16h-22.4z"></path>
</symbol>
<symbol id="icon-email" viewBox="0 0 32 32">
<path d="M5.333 26.667c-0.733 0-1.361-0.261-1.883-0.783s-0.783-1.15-0.784-1.884v-16c0-0.733 0.261-1.361 0.784-1.883s1.15-0.783 1.883-0.784h21.333c0.733 0 1.361 0.261 1.884 0.784s0.784 1.15 0.783 1.883v16c0 0.733-0.261 1.361-0.783 1.884s-1.15 0.784-1.884 0.783h-21.333zM16 17.333l-10.667-6.667v13.333h21.333v-13.333l-10.667 6.667zM16 14.667l10.667-6.667h-21.333l10.667 6.667zM5.333 10.667v-0z"></path>
</symbol>
<symbol id="icon-phone" viewBox="0 0 32 32">
<path d="M6.436 13.849c2.56 5.031 6.684 9.138 11.716 11.716l3.911-3.911c0.48-0.48 1.191-0.64 1.813-0.427 1.991 0.658 4.142 1.013 6.347 1.013 0.978 0 1.778 0.8 1.778 1.778v6.204c0 0.978-0.8 1.778-1.778 1.778-16.693 0-30.222-13.529-30.222-30.222 0-0.978 0.8-1.778 1.778-1.778h6.222c0.978 0 1.778 0.8 1.778 1.778 0 2.222 0.356 4.356 1.013 6.347 0.196 0.622 0.053 1.316-0.444 1.813l-3.911 3.911z"></path>
</symbol>
<symbol id="icon-arrow-rotate" viewBox="0 0 32 32">
<path d="M26.075 4.169l-16.343-0c-0.467 0-0.905 0.183-1.237 0.514s-0.514 0.771-0.515 1.237l0 1.484c-0 0.466 0.182 0.905 0.514 1.237s0.781 0.525 1.247 0.524l9.545 0.011-15.146 15.145c-0.683 0.683-0.688 1.757-0.005 2.44l1.049 1.049c0.683 0.683 1.811 0.732 2.494 0.049l15.2-15.2-0.017 9.625c0 0.466 0.174 0.897 0.506 1.229s0.767 0.51 1.233 0.51l1.482-0.002c0.467 0 0.904-0.184 1.236-0.515s0.514-0.771 0.514-1.238v-16.343c-0-0.468-0.184-0.909-0.517-1.24-0.332-0.334-0.773-0.518-1.241-0.518z"></path>
</symbol>
<symbol id="icon-close" viewBox="0 0 32 32">
<path d="M18.442 16.026l10.383-10.384c0.676-0.675 0.676-1.768 0-2.443s-1.767-0.675-2.443 0l-10.384 10.384-10.383-10.384c-0.676-0.675-1.768-0.675-2.443 0s-0.676 1.768 0 2.443l10.383 10.384-10.383 10.384c-0.676 0.676-0.676 1.768 0 2.443 0.337 0.337 0.779 0.506 1.221 0.506s0.885-0.169 1.221-0.506l10.383-10.384 10.384 10.384c0.337 0.337 0.779 0.506 1.221 0.506s0.885-0.169 1.221-0.506c0.676-0.676 0.676-1.768 0-2.443l-10.383-10.384z"></path>
</symbol>
<symbol id="icon-arrow-left" viewBox="0 0 32 32">
<path stroke-linejoin="round" stroke-linecap="round" stroke-miterlimit="4" stroke-width="4" d="M23 30l-14-14 14-14"></path>
</symbol>
<symbol id="icon-arrow-right" viewBox="0 0 32 32">
<path stroke-linejoin="round" stroke-linecap="round" stroke-miterlimit="4" stroke-width="4" d="M9 2l14 14-14 14"></path>
</symbol>
<symbol id="icon-done" viewBox="0 0 32 32">
<path d="M15.713 0c-4.193 0.076-8.189 1.795-11.128 4.787s-4.585 7.019-4.585 11.213c0 4.194 1.647 8.221 4.585 11.213s6.935 4.711 11.128 4.787c4.193-0.076 8.189-1.795 11.128-4.787s4.585-7.019 4.585-11.213-1.647-8.221-4.585-11.213c-2.939-2.992-6.935-4.711-11.128-4.787zM12.391 21.198l-3.918-3.922c-0.321-0.322-0.501-0.758-0.501-1.212s0.18-0.89 0.501-1.212c0.322-0.32 0.758-0.5 1.213-0.5s0.891 0.18 1.213 0.5l2.76 2.764 6.87-6.87c0.322-0.321 0.758-0.501 1.212-0.501s0.89 0.18 1.212 0.501c0.32 0.322 0.5 0.758 0.5 1.212s-0.18 0.89-0.5 1.212l-8.084 8.084c-0.164 0.163-0.36 0.292-0.574 0.378s-0.445 0.128-0.676 0.122c-0.231-0.005-0.459-0.057-0.67-0.153s-0.4-0.233-0.557-0.403z"></path>
</symbol>
<symbol id="icon-done1" viewBox="0 0 32 32">
<path d="M11.055 31.333l-2.764-4.673-5.236-1.168 0.509-5.403-3.564-4.089 3.564-4.089-0.509-5.403 5.236-1.168 2.764-4.673 4.945 2.117 4.945-2.117 2.764 4.673 5.236 1.168-0.509 5.403 3.564 4.089-3.564 4.089 0.509 5.403-5.236 1.168-2.764 4.673-4.945-2.117-4.945 2.117zM14.473 21.184l8.218-8.251-2.036-2.117-6.182 6.206-3.127-3.067-2.036 2.044 5.164 5.184z"></path>
</symbol>
<symbol id="icon-star-disabled1" viewBox="0 0 32 32">
<path stroke-linejoin="round" stroke-linecap="round" stroke-miterlimit="4" stroke-width="1.6" d="M15.467 1.6l4.532 9.181 10.135 1.481-7.333 7.143 1.731 10.091-9.064-4.767-9.064 4.767 1.731-10.091-7.333-7.143 10.135-1.481 4.532-9.181z"></path>
</symbol>
<symbol id="icon-check" viewBox="0 0 32 32">
<path d="M13.009 21.553l-5.972-5.973 1.99-1.99 3.982 3.98 7.96-7.962 1.991 1.992-9.952 9.953z"></path>
<path d="M0 15.481c0 8.55 6.931 15.482 15.481 15.482s15.482-6.932 15.482-15.482c0-8.55-6.932-15.481-15.482-15.481s-15.481 6.931-15.481 15.481zM15.481 28.148c-1.663 0-3.311-0.328-4.847-0.964s-2.933-1.57-4.109-2.746-2.109-2.573-2.746-4.109c-0.637-1.537-0.964-3.184-0.964-4.847s0.328-3.311 0.964-4.847c0.637-1.537 1.57-2.933 2.746-4.109s2.573-2.109 4.109-2.746c1.537-0.637 3.184-0.964 4.847-0.964 3.359 0 6.581 1.335 8.957 3.71s3.71 5.597 3.71 8.957c0 3.359-1.334 6.581-3.71 8.957s-5.597 3.71-8.957 3.71z"></path>
</symbol>
<symbol id="icon-arrow-down" viewBox="0 0 59 32">
<path d="M57.888 4.555l-26.666 26.667c-0.248 0.248-0.542 0.445-0.866 0.579s-0.671 0.203-1.021 0.203c-0.35 0-0.697-0.069-1.021-0.203s-0.618-0.331-0.866-0.579l-26.667-26.667c-0.5-0.5-0.781-1.179-0.781-1.887s0.281-1.386 0.781-1.887c0.5-0.5 1.179-0.781 1.887-0.781s1.386 0.281 1.887 0.781l24.78 24.783 24.78-24.783c0.248-0.248 0.542-0.444 0.866-0.578s0.671-0.203 1.021-0.203c0.35 0 0.697 0.069 1.021 0.203s0.618 0.331 0.866 0.578c0.248 0.248 0.444 0.542 0.579 0.866s0.203 0.671 0.203 1.021-0.069 0.697-0.203 1.021c-0.134 0.324-0.331 0.618-0.579 0.866z"></path>
</symbol>
<symbol id="icon-arrow-next" viewBox="0 0 38 32">
<path d="M37.932 17.133l-14.4 14.4c-0.3 0.3-0.707 0.469-1.132 0.469s-0.832-0.169-1.132-0.469c-0.3-0.3-0.469-0.707-0.469-1.132s0.169-0.832 0.469-1.132l11.67-11.668h-31.338c-0.424 0-0.831-0.169-1.131-0.469s-0.469-0.707-0.469-1.131c0-0.424 0.169-0.831 0.469-1.131s0.707-0.469 1.131-0.469h31.338l-11.67-11.668c-0.3-0.3-0.469-0.707-0.469-1.132s0.169-0.832 0.469-1.132c0.3-0.3 0.707-0.469 1.132-0.469s0.832 0.169 1.132 0.469l14.4 14.4c0.148 0.149 0.267 0.325 0.347 0.519s0.122 0.402 0.122 0.613-0.042 0.418-0.122 0.613c-0.081 0.194-0.199 0.371-0.347 0.519z"></path>
</symbol>
<symbol id="icon-arrow-prev" viewBox="0 0 38 32">
<path d="M38.401 16.001c0 0.424-0.169 0.831-0.469 1.131s-0.707 0.469-1.131 0.469h-31.338l11.67 11.668c0.149 0.149 0.267 0.325 0.347 0.519s0.122 0.402 0.122 0.613c0 0.21-0.041 0.418-0.122 0.613s-0.198 0.371-0.347 0.519c-0.149 0.149-0.325 0.267-0.519 0.347s-0.402 0.122-0.613 0.122c-0.21 0-0.418-0.042-0.613-0.122s-0.371-0.198-0.519-0.347l-14.4-14.4c-0.149-0.149-0.267-0.325-0.347-0.519s-0.122-0.402-0.122-0.613c0-0.21 0.041-0.418 0.122-0.613s0.199-0.371 0.347-0.519l14.4-14.4c0.3-0.3 0.707-0.469 1.132-0.469s0.832 0.169 1.132 0.469 0.469 0.707 0.469 1.132c0 0.425-0.169 0.832-0.469 1.132l-11.67 11.668h31.338c0.424 0 0.831 0.169 1.131 0.469s0.469 0.707 0.469 1.131z"></path>
</symbol>
<symbol id="icon-star1" viewBox="0 0 34 32">
<path d="M15.038 1.978c0.64-1.965 3.42-1.965 4.058 0l2.283 7.023c0.287 0.861 1.085 1.471 2.027 1.472h7.386c2.067 0 2.925 2.645 1.254 3.861l-5.973 4.339c-0.536 0.392-0.881 1.019-0.881 1.727 0 0.235 0.038 0.462 0.108 0.673l-0.004-0.015 2.283 7.023c0.64 1.965-1.611 3.601-3.283 2.385l-5.973-4.339c-0.347-0.255-0.783-0.408-1.254-0.408s-0.907 0.153-1.26 0.412l0.006-0.004-5.973 4.339c-1.673 1.216-3.921-0.42-3.283-2.385l2.283-7.023c0.066-0.197 0.104-0.424 0.104-0.66 0-0.707-0.344-1.333-0.873-1.721l-0.006-0.004-5.973-4.337c-1.673-1.216-0.815-3.861 1.252-3.861h7.383c0 0 0 0 0.001 0 0.942 0 1.741-0.61 2.024-1.457l0.004-0.015z"></path>
</symbol>
</defs>
</svg>
