<svg width="41" height="27" viewBox="0 0 41 27" fill="none" xmlns="http://www.w3.org/2000/svg">
<path d="M40.1606 15.1357C39.8583 11.7419 39.3602 11.0809 39.1721 10.8323C38.7396 10.2579 38.0476 9.88244 37.3152 9.48855C37.2738 9.46666 37.2381 9.43543 37.2108 9.39735C37.1835 9.35926 37.1654 9.31536 37.158 9.2691C37.1506 9.22285 37.154 9.1755 37.1681 9.1308C37.1821 9.0861 37.2063 9.04526 37.2388 9.01152C37.3744 8.87398 37.4787 8.7087 37.5443 8.52705C37.61 8.34539 37.6356 8.15167 37.6193 7.9592C37.5877 7.6179 37.429 7.30093 37.1746 7.07116C36.9203 6.84139 36.5889 6.71561 36.2461 6.71875H34.936C34.8798 6.71908 34.8237 6.72273 34.768 6.72967C34.7297 6.71308 34.6901 6.69987 34.6496 6.6902C33.8736 5.04998 32.8111 2.80424 30.6091 1.70824C27.3429 0.0839841 21.3263 0 20.1505 0C18.9747 0 12.9581 0.0839842 9.69613 1.70572C7.49406 2.80172 6.43165 5.04746 5.65564 6.68768L5.64892 6.70111C5.61022 6.70656 5.57221 6.71613 5.53554 6.72967C5.47981 6.72273 5.42373 6.71908 5.36757 6.71875H4.0549C3.71215 6.71561 3.38074 6.84139 3.12639 7.07116C2.87204 7.30093 2.71334 7.6179 2.68175 7.9592C2.66683 8.15123 2.69355 8.34421 2.76008 8.52495C2.82661 8.7057 2.93139 8.86996 3.06724 9.00648C3.09974 9.04023 3.12396 9.08106 3.13797 9.12576C3.15199 9.17046 3.15543 9.21781 3.14802 9.26406C3.14061 9.31032 3.12255 9.35423 3.09527 9.39231C3.06799 9.43039 3.03223 9.46162 2.99081 9.48352C2.25847 9.87992 1.56308 10.2553 1.13392 10.8273C0.945794 11.0792 0.448606 11.7368 0.145423 15.1306C-0.0225459 17.0404 -0.0477412 19.0174 0.0841143 20.2906C0.360423 22.9361 0.878607 24.5352 0.900443 24.6015C0.979958 24.843 1.12633 25.0569 1.32256 25.2185C1.51878 25.3801 1.75682 25.4827 2.00904 25.5145V25.5312C2.00904 25.8876 2.15061 26.2294 2.40261 26.4814C2.65461 26.7334 2.9964 26.875 3.35279 26.875H8.05591C8.4123 26.875 8.75408 26.7334 9.00609 26.4814C9.25809 26.2294 9.39966 25.8876 9.39966 25.5312C10.1228 25.5312 10.6258 25.4019 11.1591 25.2642C11.9291 25.0567 12.7161 24.9187 13.5107 24.8518C16.0731 24.6074 18.6211 24.5234 20.1505 24.5234C21.6488 24.5234 24.3094 24.6074 26.876 24.8518C27.6737 24.9189 28.4638 25.0574 29.2368 25.2659C29.7474 25.3969 30.232 25.5178 30.903 25.5304C30.903 25.8868 31.0446 26.2286 31.2966 26.4806C31.5486 26.7326 31.8904 26.8742 32.2468 26.8742H36.9499C37.3063 26.8742 37.6481 26.7326 37.9001 26.4806C38.1521 26.2286 38.2936 25.8868 38.2936 25.5304V25.5203C38.5465 25.4892 38.7852 25.3869 38.9821 25.2252C39.179 25.0636 39.3258 24.8493 39.4056 24.6074C39.4274 24.5411 39.9456 22.942 40.2219 20.2965C40.3538 19.0225 40.3303 17.0488 40.1606 15.1357ZM8.08447 7.83658C8.75634 6.40885 9.5248 4.79299 10.8929 4.11188C12.8699 3.12758 16.9675 2.68414 20.1505 2.68414C23.3335 2.68414 27.4311 3.12422 29.4081 4.11188C30.7762 4.79299 31.5413 6.40969 32.2165 7.83658L32.3005 8.01883C32.3496 8.12258 32.3713 8.23718 32.3636 8.35171C32.3558 8.46623 32.3188 8.57686 32.2562 8.67304C32.1935 8.76921 32.1073 8.84774 32.0057 8.90111C31.904 8.95448 31.7904 8.98093 31.6757 8.97793C28.8849 8.90234 23.006 8.66047 20.1505 8.66047C17.295 8.66047 11.4161 8.90822 8.62113 8.98381C8.50638 8.98681 8.39277 8.96036 8.29115 8.90699C8.18953 8.85361 8.10327 8.77509 8.04061 8.67892C7.97795 8.58274 7.94098 8.47211 7.93322 8.35759C7.92546 8.24306 7.94717 8.12846 7.99628 8.02471C8.02568 7.96256 8.05675 7.89957 8.08447 7.83658ZM9.0864 14.5243C7.6417 14.6981 6.18777 14.784 4.73265 14.7812C3.84241 14.7812 2.92447 14.5293 2.75398 13.7365C2.63724 13.2032 2.64984 12.9034 2.71283 12.6019C2.76574 12.3457 2.84972 12.1593 3.26964 12.0938C4.36144 11.9258 4.97201 12.1366 6.75919 12.6632C7.94421 13.0117 8.79917 13.4761 9.28628 13.844C9.53068 14.0254 9.4005 14.4991 9.0864 14.5243ZM27.6789 21.411C26.5736 21.537 24.3632 21.4908 20.1757 21.4908C15.9882 21.4908 13.7786 21.537 12.6734 21.411C11.5329 21.2842 10.0791 20.2058 11.0718 19.245C11.7327 18.6118 13.2747 18.1381 15.3281 17.8719C17.3815 17.6056 18.2508 17.4688 20.1673 17.4688C22.0838 17.4688 22.8649 17.5527 25.0065 17.8727C27.1481 18.1927 28.7665 18.6722 29.2628 19.2459C30.1682 20.2738 28.8185 21.2774 27.6789 21.416V21.411ZM37.547 13.7356C37.3791 14.5318 36.4552 14.7804 35.5684 14.7804C34.0854 14.7808 32.6036 14.6949 31.1306 14.5234C30.8736 14.4991 30.7544 14.0481 31.0147 13.8431C31.4943 13.4661 32.3585 13.0109 33.5418 12.6623C35.329 12.1357 36.3595 11.9249 37.2447 12.1005C37.4605 12.1433 37.5747 12.3751 37.5882 12.5204C37.6474 12.9249 37.6335 13.3369 37.547 13.7365V13.7356Z" fill="#01408F"/>
</svg>
