<svg width="30" height="24" viewBox="0 0 30 24" fill="none" xmlns="http://www.w3.org/2000/svg">
<path d="M15.0001 4.8194L4.30075 13.6399C4.30075 13.6523 4.29762 13.6706 4.29137 13.6956C4.28524 13.7204 4.28198 13.7384 4.28198 13.7511V22.6828C4.28198 23.0053 4.39988 23.2848 4.63562 23.5201C4.8713 23.7556 5.15038 23.8741 5.47293 23.8741H12.6181V16.7285H17.3822V23.8743H24.5273C24.8498 23.8743 25.1292 23.7561 25.3646 23.5201C25.6003 23.285 25.7186 23.0054 25.7186 22.6828V13.7511C25.7186 13.7016 25.7118 13.6642 25.6998 13.6399L15.0001 4.8194Z" fill="#01408F"/>
<path d="M29.793 11.6301L25.7182 8.24349V0.651426C25.7182 0.477864 25.6624 0.335131 25.5504 0.223421C25.4393 0.111841 25.2966 0.0560507 25.1227 0.0560507H21.55C21.3763 0.0560507 21.2336 0.111841 21.1218 0.223421C21.0103 0.335131 20.9546 0.477929 20.9546 0.651426V4.27992L16.4143 0.483795C16.0178 0.161243 15.5463 0 15.0004 0C14.4546 0 13.9832 0.161243 13.5863 0.483795L0.206772 11.6301C0.0827436 11.7292 0.0147659 11.8625 0.00212194 12.03C-0.0104569 12.1974 0.0328846 12.3436 0.132277 12.4676L1.28594 13.8446C1.38533 13.9562 1.51542 14.0244 1.67673 14.0494C1.82566 14.0619 1.97458 14.0183 2.12351 13.9191L15 3.18205L27.8767 13.9191C27.9762 14.0056 28.1062 14.0488 28.2675 14.0488H28.3234C28.4845 14.0243 28.6143 13.9556 28.7142 13.8443L29.868 12.4675C29.9672 12.3433 30.0107 12.1973 29.9978 12.0298C29.985 11.8627 29.9168 11.7294 29.793 11.6301Z" fill="#01408F"/>
</svg>
