<svg width="29" height="30" viewBox="0 0 29 30" fill="none" xmlns="http://www.w3.org/2000/svg">
<path d="M15.3826 17.3822L11.4506 13.4371C11.3284 13.3156 11.1631 13.2475 10.9909 13.2475C10.8186 13.2475 10.6533 13.3156 10.5311 13.4371L8.19017 15.7781C8.06872 15.9002 8.00055 16.0655 8.00055 16.2378C8.00055 16.41 8.06872 16.5753 8.19017 16.6975L8.58794 17.0953L0.254313 25.4354C0.135411 25.5553 0.0676233 25.7165 0.0652084 25.8854L0 29.3479C0 29.5209 0.0687014 29.6867 0.190991 29.809C0.31328 29.9313 0.47914 30 0.652084 30H3.39083C3.47665 30.0005 3.56172 29.984 3.64116 29.9516C3.72061 29.9191 3.79287 29.8713 3.85381 29.8109L5.39273 28.272C5.5101 28.1538 5.57777 27.9951 5.58184 27.8286L5.62096 26.4331L6.73602 26.57C6.83468 26.5818 6.93473 26.5709 7.02853 26.5382C7.12234 26.5054 7.20741 26.4516 7.27725 26.3809L8.24886 25.4354C8.35612 25.3288 8.42297 25.1881 8.43796 25.0376L8.56186 23.7335L10.1529 23.3813C10.2788 23.3537 10.3937 23.2895 10.483 23.1966C10.5724 23.1038 10.6323 22.9865 10.655 22.8597L10.9746 21.0925L12.683 20.8252C12.8188 20.8037 12.9444 20.7398 13.0417 20.6426L15.3826 18.3016C15.5041 18.1794 15.5723 18.0142 15.5723 17.8419C15.5723 17.6696 15.5041 17.5044 15.3826 17.3822ZM27.6809 6.17938L22.6403 1.1453C21.4721 -0.225053 19.4142 -0.388889 18.044 0.779318C17.9125 0.89142 17.7901 1.0138 17.678 1.1453L10.1334 8.68991C9.60323 9.23423 9.60323 10.1018 10.1334 10.6462L18.154 18.6668C18.6983 19.1969 19.5659 19.1969 20.1103 18.6668L27.6809 11.1417C29.2329 9.58978 29.2329 7.73786 27.6809 6.17938ZM24.8678 9.40337C24.8644 9.40686 24.8609 9.41031 24.8574 9.41372L24.8639 9.4398C24.7418 9.56125 24.5765 9.62942 24.4042 9.62942C24.232 9.62942 24.0667 9.56125 23.9445 9.4398L19.4125 4.90782C19.3443 4.84936 19.2888 4.77743 19.2497 4.69653C19.2105 4.61563 19.1885 4.52751 19.1851 4.4377C19.1816 4.3479 19.1967 4.25835 19.2295 4.17467C19.2623 4.09099 19.312 4.01499 19.3756 3.95144C19.4391 3.88789 19.5151 3.83817 19.5988 3.80538C19.6825 3.7726 19.772 3.75747 19.8618 3.76094C19.9517 3.76441 20.0398 3.7864 20.1207 3.82554C20.2016 3.86468 20.2735 3.92012 20.332 3.98838L24.8574 8.48124C24.9187 8.54111 24.9675 8.61245 25.0011 8.69119C25.0348 8.76993 25.0526 8.85453 25.0536 8.94016C25.0545 9.02579 25.0386 9.11077 25.0067 9.19024C24.9749 9.26972 24.9276 9.34214 24.8678 9.40337Z" fill="#01408F"/>
</svg>
