<svg width="23" height="30" viewBox="0 0 23 30" fill="none" xmlns="http://www.w3.org/2000/svg">
<path d="M20.4851 12.4254H19.2762V8.16858C19.2762 3.66449 15.6118 0 11.1076 0C6.60364 0 2.93915 3.66449 2.93915 8.16864V12.4255H1.73035C0.77478 12.4255 0 13.2001 0 14.1558V28.2697C0 29.2253 0.774719 30 1.73035 30H20.4851C21.4407 30 22.2153 29.2253 22.2153 28.2697V14.1558C22.2153 13.2001 21.4407 12.4254 20.4851 12.4254ZM12.9494 24.8198H9.26599L9.92523 21.6785C9.30871 21.2862 8.89691 20.6011 8.89691 19.8162C8.89691 18.5953 9.88678 17.6056 11.1077 17.6056C12.3286 17.6056 13.3183 18.5953 13.3183 19.8162C13.3183 20.6011 12.9066 21.2862 12.2902 21.6784L12.9494 24.8198ZM16.3616 12.4254H5.85376V8.16858C5.85376 5.2713 8.21051 2.91461 11.1077 2.91461C14.0049 2.91461 16.3616 5.27136 16.3616 8.16858V12.4254Z" fill="#01408F"/>
</svg>
