<!-- Generated by IcoMoon.io -->
<svg version="1.1" xmlns="http://www.w3.org/2000/svg" width="18" height="32" viewBox="0 0 18 32">
<path d="M18.295 15.864c0.002 0.301-0.056 0.599-0.17 0.877s-0.281 0.532-0.493 0.745l-13.714 13.714c-0.43 0.43-1.014 0.672-1.623 0.672s-1.192-0.242-1.623-0.672c-0.43-0.43-0.672-1.014-0.672-1.623s0.242-1.192 0.672-1.623l12.114-12.091-12.091-12.091c-0.374-0.437-0.57-1-0.548-1.575s0.261-1.121 0.668-1.528c0.407-0.407 0.953-0.646 1.528-0.668s1.138 0.173 1.575 0.548l13.714 13.714c0.422 0.426 0.66 1 0.663 1.6z"></path>
</svg>
