<!-- Generated by IcoMoon.io -->
<svg version="1.1" xmlns="http://www.w3.org/2000/svg" width="32" height="32" viewBox="0 0 32 32">
<path d="M15.713 0c-4.193 0.076-8.189 1.795-11.128 4.787s-4.585 7.019-4.585 11.213c0 4.194 1.647 8.221 4.585 11.213s6.935 4.711 11.128 4.787c4.193-0.076 8.189-1.795 11.128-4.787s4.585-7.019 4.585-11.213-1.647-8.221-4.585-11.213c-2.939-2.992-6.935-4.711-11.128-4.787zM12.391 21.198l-3.918-3.922c-0.321-0.322-0.501-0.758-0.501-1.212s0.18-0.89 0.501-1.212c0.322-0.32 0.758-0.5 1.213-0.5s0.891 0.18 1.213 0.5l2.76 2.764 6.87-6.87c0.322-0.321 0.758-0.501 1.212-0.501s0.89 0.18 1.212 0.501c0.32 0.322 0.5 0.758 0.5 1.212s-0.18 0.89-0.5 1.212l-8.084 8.084c-0.164 0.163-0.36 0.292-0.574 0.378s-0.445 0.128-0.676 0.122c-0.231-0.005-0.459-0.057-0.67-0.153s-0.4-0.233-0.557-0.403z"></path>
</svg>
