<!-- Generated by IcoMoon.io -->
<svg version="1.1" xmlns="http://www.w3.org/2000/svg" width="41" height="32" viewBox="0 0 41 32">
<path d="M34.909 0h-31.030c-2.133 0-3.859 1.745-3.859 3.879l-0.019 23.273c0 2.133 1.745 3.879 3.879 3.879h31.030c2.133 0 3.879-1.745 3.879-3.879v-23.273c0-2.133-1.745-3.879-3.879-3.879zM34.133 8.242l-13.711 8.572c-0.621 0.388-1.435 0.388-2.056 0l-13.711-8.572c-0.194-0.109-0.365-0.257-0.501-0.434s-0.234-0.38-0.29-0.596c-0.055-0.216-0.066-0.441-0.032-0.661s0.113-0.431 0.231-0.621c0.118-0.189 0.274-0.352 0.457-0.48s0.39-0.216 0.609-0.261c0.218-0.045 0.444-0.045 0.662-0.001s0.426 0.133 0.609 0.26l12.994 8.126 12.994-8.126c0.184-0.127 0.391-0.215 0.609-0.26s0.444-0.044 0.662 0.001c0.218 0.045 0.426 0.134 0.609 0.261s0.338 0.29 0.457 0.48c0.118 0.189 0.197 0.4 0.231 0.621s0.023 0.445-0.032 0.661c-0.055 0.216-0.154 0.419-0.289 0.596s-0.306 0.324-0.501 0.434z"></path>
</svg>
