<!-- Generated by IcoMoon.io -->
<svg version="1.1" xmlns="http://www.w3.org/2000/svg" width="23" height="32" viewBox="0 0 23 32">
<path d="M11.429 0c-6.309 0-11.429 4.608-11.429 10.286 0 9.143 11.429 21.714 11.429 21.714s11.429-12.571 11.429-21.714c0-5.678-5.119-10.286-11.429-10.286zM11.429 16c-0.904 0-1.788-0.268-2.54-0.77s-1.338-1.216-1.684-2.052-0.437-1.754-0.26-2.641c0.176-0.887 0.612-1.701 1.251-2.341s1.454-1.075 2.341-1.251c0.887-0.176 1.806-0.086 2.641 0.26s1.549 0.932 2.052 1.684c0.502 0.752 0.77 1.636 0.77 2.54-0.001 1.212-0.483 2.374-1.34 3.231s-2.019 1.339-3.231 1.34z"></path>
</svg>
