<!-- Generated by IcoMoon.io -->
<svg version="1.1" xmlns="http://www.w3.org/2000/svg" width="30" height="32" viewBox="0 0 30 32">
<path d="M26.483 22.272c-1.933-1.653-3.895-2.655-5.804-1.004l-1.14 0.998c-0.834 0.724-2.385 4.108-8.382-2.79-5.995-6.89-2.428-7.962-1.592-8.68l1.146-0.999c1.899-1.655 1.183-3.738-0.187-5.882l-0.827-1.299c-1.376-2.139-2.875-3.544-4.779-1.892l-1.029 0.899c-0.842 0.613-3.194 2.606-3.765 6.393-0.687 4.543 1.48 9.745 6.444 15.454 4.958 5.711 9.812 8.579 14.41 8.529 3.821-0.041 6.129-2.092 6.851-2.837l1.033-0.9c1.899-1.651 0.719-3.332-1.215-4.989l-1.163-1z"></path>
</svg>
