<!-- Generated by IcoMoon.io -->
<svg version="1.1" xmlns="http://www.w3.org/2000/svg" width="32" height="32" viewBox="0 0 32 32">
<path d="M22.857 2.042c2.298 1.327 4.21 3.231 5.546 5.524s2.050 4.895 2.072 7.549c0.021 2.654-0.651 5.267-1.95 7.581s-3.18 4.249-5.456 5.613c-2.276 1.364-4.87 2.11-7.523 2.163s-5.275-0.587-7.605-1.857c-2.33-1.271-4.288-3.128-5.679-5.388s-2.169-4.844-2.255-7.496l-0.008-0.494 0.008-0.494c0.085-2.632 0.851-5.196 2.223-7.444s3.302-4.101 5.603-5.381c2.301-1.279 4.895-1.941 7.528-1.919s5.215 0.725 7.496 2.041zM15.238 6.095c-0.373 0-0.733 0.137-1.012 0.385s-0.457 0.59-0.501 0.96l-0.011 0.178v7.619l0.014 0.2c0.035 0.264 0.138 0.515 0.3 0.727l0.133 0.152 4.571 4.571 0.143 0.125c0.267 0.207 0.596 0.32 0.934 0.32s0.667-0.113 0.934-0.32l0.143-0.126 0.126-0.143c0.207-0.267 0.32-0.596 0.32-0.934s-0.113-0.667-0.32-0.934l-0.126-0.143-4.125-4.126v-6.987l-0.011-0.178c-0.044-0.371-0.222-0.712-0.501-0.96s-0.639-0.385-1.012-0.385z"></path>
</svg>
